<?xml version="1.0" standalone="no"?>
<!DOCTYPE svg PUBLIC "-//W3C//DTD SVG 20010904//EN"
 "http://www.w3.org/TR/2001/REC-SVG-20010904/DTD/svg10.dtd">
<svg version="1.0" xmlns="http://www.w3.org/2000/svg"
 width="270.000000pt" height="270.000000pt" viewBox="0 0 270.000000 270.000000"
 preserveAspectRatio="xMidYMid meet">
<metadata>
Created by potrace 1.11, written by Peter Selinger 2001-2013
</metadata>
<g transform="translate(0.000000,270.000000) scale(0.100000,-0.100000)"
fill="#000000" stroke="none">
<path d="M265 2450 l240 -240 237 237 c131 131 238 239 238 240 0 2 -215 3
-477 3 l-478 0 240 -240z"/>
<path d="M1265 2450 l240 -240 237 237 c131 131 238 239 238 240 0 2 -215 3
-477 3 l-478 0 240 -240z"/>
<path d="M2265 2450 l240 -240 97 97 98 98 0 142 0 143 -337 0 -338 0 240
-240z"/>
<path d="M0 1962 l0 -247 253 -253 252 -252 250 250 250 250 250 -250 250
-250 250 250 250 250 250 -250 250 -250 98 98 97 97 0 250 0 250 -95 -95 -95
-95 -250 250 -250 250 -250 -250 -250 -250 -250 250 -250 250 -250 -250 -250
-250 -247 247 c-136 137 -251 248 -255 248 -5 0 -8 -111 -8 -248z"/>
<path d="M0 962 l0 -247 253 -253 252 -252 250 250 250 250 250 -250 250 -250
250 250 250 250 250 -250 250 -250 98 98 97 97 0 250 0 250 -95 -95 -95 -95
-250 250 -250 250 -250 -250 -250 -250 -250 250 -250 250 -250 -250 -250 -250
-247 247 c-136 137 -251 248 -255 248 -5 0 -8 -111 -8 -248z"/>
<path d="M0 105 l0 -105 112 0 113 0 -105 105 c-58 58 -108 105 -112 105 -5 0
-8 -47 -8 -105z"/>
<path d="M900 105 l-105 -105 215 0 215 0 -105 105 c-58 58 -107 105 -110 105
-3 0 -52 -47 -110 -105z"/>
<path d="M1900 105 l-105 -105 215 0 215 0 -105 105 c-58 58 -107 105 -110
105 -3 0 -52 -47 -110 -105z"/>
</g>
</svg>
